<svg width="123" height="108" viewBox="0 0 123 108" fill="none" xmlns="http://www.w3.org/2000/svg">
<path d="M63.9397 24.2803C66.4284 21.5495 67.7617 17.9603 67.6595 14.2671C67.5574 10.5738 66.0277 7.06383 63.392 4.47469C60.7563 1.88555 57.2196 0.418768 53.5251 0.382524C49.8305 0.346279 46.2658 1.74339 43.5797 4.28033L4.09974 44.4203C1.47847 47.0888 0.00976562 50.6798 0.00976562 54.4203C0.00976563 58.1609 1.47847 61.7519 4.09974 64.4203L42.7897 103.77C45.4627 106.371 49.0475 107.822 52.7767 107.812C56.506 107.803 60.0833 106.334 62.7431 103.72C65.4028 101.106 66.9336 97.5544 67.0078 93.8259C67.0819 90.0974 65.6935 86.488 63.1397 83.7703L48.0597 68.4103L108.72 68.1203C110.594 68.1052 112.446 67.7212 114.172 66.9901C115.897 66.259 117.462 65.1952 118.776 63.8594C120.091 62.5237 121.129 60.9421 121.833 59.205C122.536 57.4679 122.89 55.6093 122.875 53.7353C122.86 51.8614 122.476 50.0087 121.744 48.2832C121.013 46.5576 119.95 44.993 118.614 43.6786C117.278 42.3642 115.696 41.3257 113.959 40.6226C112.222 39.9194 110.364 39.5652 108.49 39.5803L48.6397 39.8603L63.9397 24.2803Z" fill="white"/>
</svg>
