<svg width="123" height="108" viewBox="0 0 123 108" fill="none" xmlns="http://www.w3.org/2000/svg">
<path d="M58.9353 83.5322C56.4466 86.263 55.1133 89.8522 55.2155 93.5454C55.3176 97.2387 56.8473 100.749 59.483 103.338C62.1187 105.927 65.6554 107.394 69.3499 107.43C73.0445 107.466 76.6092 106.069 79.2953 103.532L118.775 63.3922C121.397 60.7237 122.865 57.1327 122.865 53.3922C122.865 49.6516 121.397 46.0606 118.775 43.3922L80.0853 4.04218C77.4123 1.44167 73.8275 -0.00913931 70.0983 0.000305176C66.369 0.00974966 62.7917 1.47869 60.1319 4.0927C57.4722 6.70672 55.9414 10.2581 55.8672 13.9866C55.7931 17.7151 57.1815 21.3245 59.7353 24.0422L74.8153 39.4022L14.1553 39.6922C12.2813 39.7073 10.4287 40.0913 8.70312 40.8224C6.97758 41.5535 5.41294 42.6173 4.09853 43.9531C2.78411 45.2888 1.74567 46.8704 1.04249 48.6075C0.339306 50.3446 -0.0148426 52.2032 0.000259399 54.0772C0.0153614 55.9511 0.399421 57.8038 1.13051 59.5293C1.8616 61.2549 2.92539 62.8195 4.26116 64.1339C5.59693 65.4483 7.17852 66.4868 8.91561 67.1899C10.6527 67.8931 12.5113 68.2473 14.3853 68.2322L74.2353 67.9522L58.9353 83.5322Z" fill="white"/>
</svg>
