<svg class="svg svg-replaced headerLogo" xmlns="http://www.w3.org/2000/svg" viewBox="0 0 450.99 90.87">
  <path class="white" style="stroke:none;fill-rule:nonzero;fill:#ffffff;fill-opacity:1;"
        d="M358.91,251.25c-1.69,10.34-3.37,14.48-7,18.42-4.86,5.12-12.78,7.88-22.3,7.88-15.85,0-24.87-7-24.87-19.21a43.39,43.39,0,0,1,.59-7.09l6.84-40.4h20.12l-6.84,40.4a38.22,38.22,0,0,0-.5,4.92c0,3.84,3.09,6.5,7.21,6.5,3.07,0,5.94-1.18,7.43-3.15,1.09-1.48,1.69-3.35,2.38-7.58l6.94-41.09h16.88Z"
        transform="translate(-26.01 -209.18)"></path>
  <polygon class="white" style="stroke:none;fill-rule:nonzero;fill:#ffffff;fill-opacity:1;"
           points="366.72 67.39 347.54 67.39 356.14 16.68 342 16.68 344.58 1.64 392.22 1.64 389.75 16.68 375.22 16.68 366.72 67.39"></polygon>
  <path class="white" style="stroke:none;fill-rule:nonzero;fill:#ffffff;fill-opacity:1;"
        d="M477,239.33a45.8,45.8,0,0,1-7.73,25,31.53,31.53,0,0,1-26.56,13.89c-17.25,0-28.94-11.92-28.94-29.55,0-11.34,4.26-22.76,11.2-29.86a33.21,33.21,0,0,1,23.59-9.65C465.8,209.18,477,221,477,239.33Zm-39.54-4.74a79.05,79.05,0,0,0-3,18.33c0,6.6,2.78,10.05,8.33,10.05,5.25,0,8.72-3.55,10.7-11,1.59-5.91,2.87-13.89,2.87-17.15,0-6.5-3.17-10.24-8.52-10.24C443.11,224.55,439.54,228,437.46,234.59Z"
        transform="translate(-26.01 -209.18)"></path>
  <rect class="white" style="stroke:none;fill-rule:nonzero;fill:#ffffff;fill-opacity:1;" x="0.09" y="76.01"
        width="450.17" height="14.87"></rect>
  <path class="white" style="stroke:none;fill-rule:nonzero;fill:#ffffff;fill-opacity:1;"
        d="M77.25,210.85H56.53L26,276.57H43.48l6.14-13.41H67.37l1.78,13.41h18.4l-10.3-65.72ZM54.78,249.57l3.68-8c3.86-8.78,5.38-13.56,5.38-13.56s0-.09.09-.09a.1.1,0,0,1,.1.09,145.07,145.07,0,0,0,1.29,15.45l.86,6.14Z"
        transform="translate(-26.01 -209.18)"></path>
  <path class="white" style="stroke:none;fill-rule:nonzero;fill:#ffffff;fill-opacity:1;"
        d="M140.86,210.85H120.14L89.62,276.57h17.47l6.15-13.41H131l1.79,13.41h18.4l-10.31-65.72Zm-22.47,38.72,3.69-8c3.85-8.78,5.37-13.56,5.37-13.56a.11.11,0,0,1,.1-.09.09.09,0,0,1,.09.09,145.07,145.07,0,0,0,1.29,15.45l.86,6.14Z"
        transform="translate(-26.01 -209.18)"></path>
  <path class="white" style="stroke:none;fill-rule:nonzero;fill:#ffffff;fill-opacity:1;"
        d="M204.47,210.85H183.76l-30.52,65.72h17.47l6.14-13.41h17.74l1.78,13.41h18.41l-10.31-65.72ZM182,249.57l3.68-8c3.85-8.78,5.37-13.56,5.37-13.56s0-.09.1-.09a.09.09,0,0,1,.09.09,145.07,145.07,0,0,0,1.29,15.45l.86,6.14Z"
        transform="translate(-26.01 -209.18)"></path>
  <path class="white" style="stroke:none;fill-rule:nonzero;fill:#ffffff;fill-opacity:1;"
        d="M291.68,210.85H271l-30.52,65.72h17.47l6.15-13.41H281.8l1.78,13.41H302l-10.31-65.72Zm-22.47,38.72,3.68-8c3.86-8.78,5.38-13.56,5.38-13.56s0-.09.09-.09a.1.1,0,0,1,.1.09,146.41,146.41,0,0,0,1.28,15.45l.87,6.14Z"
        transform="translate(-26.01 -209.18)"></path>
</svg>
