<svg width="1085" height="175" viewBox="0 0 1085 175" fill="none" xmlns="http://www.w3.org/2000/svg">
<path d="M48.2575 87.1768C36.9994 87.1768 27.8848 96.2977 27.8848 107.556C27.8848 118.814 37.0058 127.935 48.2575 127.935C59.5029 127.935 68.6303 118.814 68.6303 107.556C68.6303 96.2977 59.5029 87.1768 48.2575 87.1768ZM48.2575 113.713C44.8737 113.713 42.1005 110.952 42.1005 107.562C42.1005 104.172 44.8737 101.412 48.2575 101.412C51.635 101.412 54.4018 104.172 54.4018 107.562C54.4018 110.952 51.6413 113.713 48.2575 113.713Z" fill="white"/>
<path d="M196.635 90.9108L193.302 63.8024C192.647 58.5996 188.099 54.7833 182.852 55.0695L175.55 55.4766L152.881 35.053C150.693 33.0876 147.875 32.0064 144.937 32.0064L98.8803 32C88.5445 32 78.5204 35.5301 70.4616 42.005L44.7652 62.6512L10.2086 71.2887C5.76897 72.3955 2.65233 76.3899 2.65233 80.963V90.9236C1.18941 90.9172 0 92.1003 0 93.5632V106.736C0 108.612 1.52016 110.132 3.39651 110.132H22.9042C22.8215 109.286 22.6497 108.479 22.6497 107.613C22.6497 93.4487 34.1241 81.9871 48.2825 81.9871C62.441 81.9871 73.909 93.4487 73.909 107.613C73.909 108.485 73.7309 109.293 73.6482 110.132H127.668C127.592 109.286 127.42 108.479 127.42 107.613C127.42 93.4487 138.894 81.9871 153.046 81.9871C167.211 81.9871 178.666 93.4487 178.666 107.613C178.666 108.485 178.501 109.293 178.412 110.132H196.609C198.486 110.132 200 108.612 200 106.736V94.3137C200.031 92.4437 198.511 90.9108 196.635 90.9108ZM128.279 57.601L64.0248 60.8512L76.326 50.9606C83.0109 45.586 91.3177 42.6602 99.898 42.6602H128.279V57.601ZM138.951 57.0603V42.6665H143.13C144.58 42.6665 145.973 43.2008 147.048 44.174L160.164 55.979L138.951 57.0603Z" fill="white"/>
<path d="M153.086 87.1768C141.828 87.1768 132.713 96.2977 132.713 107.556C132.713 118.814 141.834 127.935 153.086 127.935C164.337 127.935 173.458 118.814 173.458 107.556C173.458 96.2977 164.337 87.1768 153.086 87.1768ZM153.086 113.713C149.695 113.713 146.935 110.952 146.935 107.562C146.935 104.172 149.695 101.412 153.086 101.412C156.463 101.412 159.236 104.172 159.236 107.562C159.236 110.952 156.469 113.713 153.086 113.713Z" fill="white"/>
<path d="M339.578 32L323.641 128H306.109L274.469 67.5781H273.719L263.641 128H243.344L259.281 32H277.094L308.594 92.375H309.391L319.375 32H339.578ZM372.66 129.406C365.285 129.406 359.176 127.906 354.332 124.906C349.488 121.875 346.082 117.594 344.113 112.062C342.176 106.5 341.848 99.9219 343.129 92.3281C344.379 84.9219 346.895 78.4219 350.676 72.8281C354.488 67.2344 359.27 62.875 365.02 59.75C370.77 56.625 377.176 55.0625 384.238 55.0625C388.988 55.0625 393.285 55.8281 397.129 57.3594C401.004 58.8594 404.223 61.1406 406.785 64.2031C409.348 67.2344 411.098 71.0312 412.035 75.5937C413.004 80.1562 412.988 85.5 411.988 91.625L411.098 97.1094H350.348L352.27 84.7344H394.27C394.738 81.8594 394.551 79.3125 393.707 77.0938C392.863 74.875 391.457 73.1406 389.488 71.8906C387.52 70.6094 385.098 69.9687 382.223 69.9687C379.285 69.9687 376.535 70.6875 373.973 72.125C371.41 73.5625 369.254 75.4531 367.504 77.7969C365.785 80.1094 364.676 82.625 364.176 85.3438L361.973 97.625C361.348 101.406 361.473 104.547 362.348 107.047C363.254 109.547 364.816 111.422 367.035 112.672C369.254 113.891 372.066 114.5 375.473 114.5C377.691 114.5 379.77 114.187 381.707 113.562C383.676 112.937 385.426 112.016 386.957 110.797C388.488 109.547 389.738 108 390.707 106.156L408.941 107.375C407.254 111.812 404.691 115.687 401.254 119C397.816 122.281 393.676 124.844 388.832 126.688C384.02 128.5 378.629 129.406 372.66 129.406ZM431.055 56H451.023L438.461 131.563C437.523 137.094 435.664 141.578 432.883 145.016C430.102 148.484 426.523 151.016 422.148 152.609C417.805 154.203 412.805 155 407.148 155C406.523 155 405.898 154.984 405.273 154.953C404.648 154.953 403.977 154.938 403.258 154.906L405.836 139.297C406.305 139.328 406.758 139.344 407.195 139.344C407.633 139.375 408.055 139.391 408.461 139.391C411.68 139.391 414.055 138.703 415.586 137.328C417.117 135.953 418.117 133.922 418.586 131.234L431.055 56ZM442.914 46.7187C439.945 46.7187 437.508 45.7344 435.602 43.7656C433.695 41.7656 432.914 39.375 433.258 36.5937C433.602 33.8125 434.945 31.4375 437.289 29.4687C439.633 27.5 442.273 26.5156 445.211 26.5156C448.211 26.5156 450.648 27.5 452.523 29.4687C454.398 31.4375 455.18 33.8125 454.867 36.5937C454.555 39.375 453.227 41.7656 450.883 43.7656C448.57 45.7344 445.914 46.7187 442.914 46.7187ZM490.926 32L474.988 128H455.02L470.957 32H490.926ZM523.609 129.406C516.234 129.406 510.125 127.906 505.281 124.906C500.438 121.875 497.031 117.594 495.063 112.062C493.125 106.5 492.797 99.9219 494.078 92.3281C495.328 84.9219 497.844 78.4219 501.625 72.8281C505.438 67.2344 510.219 62.875 515.969 59.75C521.719 56.625 528.125 55.0625 535.188 55.0625C539.938 55.0625 544.234 55.8281 548.078 57.3594C551.953 58.8594 555.172 61.1406 557.734 64.2031C560.297 67.2344 562.047 71.0312 562.984 75.5937C563.953 80.1562 563.938 85.5 562.938 91.625L562.047 97.1094H501.297L503.219 84.7344H545.219C545.688 81.8594 545.5 79.3125 544.656 77.0938C543.813 74.875 542.406 73.1406 540.437 71.8906C538.469 70.6094 536.047 69.9687 533.172 69.9687C530.234 69.9687 527.484 70.6875 524.922 72.125C522.359 73.5625 520.203 75.4531 518.453 77.7969C516.734 80.1094 515.625 82.625 515.125 85.3438L512.922 97.625C512.297 101.406 512.422 104.547 513.297 107.047C514.203 109.547 515.766 111.422 517.984 112.672C520.203 113.891 523.016 114.5 526.422 114.5C528.641 114.5 530.719 114.187 532.656 113.562C534.625 112.937 536.375 112.016 537.906 110.797C539.438 109.547 540.688 108 541.656 106.156L559.891 107.375C558.203 111.812 555.641 115.687 552.203 119C548.766 122.281 544.625 124.844 539.781 126.688C534.969 128.5 529.578 129.406 523.609 129.406ZM565.645 155L582.238 56H601.926L599.91 68.0937H600.801C601.988 66.1562 603.566 64.1875 605.535 62.1875C607.535 60.1562 610.02 58.4687 612.988 57.125C615.957 55.75 619.441 55.0625 623.441 55.0625C628.723 55.0625 633.332 56.4375 637.27 59.1875C641.207 61.9062 644.051 66.0156 645.801 71.5156C647.582 76.9844 647.785 83.8437 646.41 92.0937C645.098 100.125 642.676 106.906 639.145 112.437C635.645 117.937 631.441 122.109 626.535 124.953C621.66 127.766 616.488 129.172 611.02 129.172C607.145 129.172 603.957 128.531 601.457 127.25C598.988 125.969 597.066 124.359 595.691 122.422C594.316 120.453 593.348 118.469 592.785 116.469H592.035L585.66 155H565.645ZM595.785 92C595.098 96.2812 595.066 100.016 595.691 103.203C596.348 106.391 597.66 108.875 599.629 110.656C601.598 112.406 604.191 113.281 607.41 113.281C610.66 113.281 613.551 112.391 616.082 110.609C618.613 108.797 620.723 106.297 622.41 103.109C624.098 99.8906 625.301 96.1875 626.02 92C626.676 87.8437 626.691 84.1875 626.066 81.0312C625.441 77.875 624.16 75.4062 622.223 73.625C620.285 71.8437 617.66 70.9531 614.348 70.9531C611.129 70.9531 608.238 71.8125 605.676 73.5312C603.145 75.25 601.035 77.6875 599.348 80.8437C597.66 84 596.473 87.7187 595.785 92ZM722.055 76.5312L703.914 77.6562C703.82 76.0625 703.383 74.6406 702.602 73.3906C701.852 72.1094 700.742 71.0937 699.273 70.3437C697.836 69.5937 696.023 69.2188 693.836 69.2188C690.555 69.2188 687.633 69.9687 685.07 71.4687C682.508 72.9687 681.055 74.8906 680.711 77.2344C680.43 78.7344 680.82 80 681.883 81.0312C682.945 82.0625 685.086 82.9375 688.305 83.6562L700.961 86.2812C707.711 87.7187 712.586 90.1094 715.586 93.4531C718.617 96.7969 719.695 101.172 718.82 106.578C718.039 111.172 716.023 115.187 712.773 118.625C709.523 122.031 705.398 124.687 700.398 126.594C695.398 128.469 689.852 129.406 683.758 129.406C673.977 129.406 666.539 127.406 661.445 123.406C656.352 119.406 653.898 113.984 654.086 107.141L673.586 106.109C673.742 109.047 674.773 111.266 676.68 112.766C678.586 114.234 681.195 114.984 684.508 115.016C688.227 115.078 691.383 114.312 693.977 112.719C696.602 111.094 698.086 109.125 698.43 106.812C698.68 105.187 698.211 103.875 697.023 102.875C695.867 101.875 693.742 101.047 690.648 100.391L678.648 97.9062C671.836 96.5 666.945 93.9844 663.977 90.3594C661.008 86.7344 659.992 82.125 660.93 76.5312C661.68 72.0625 663.539 68.2344 666.508 65.0469C669.508 61.8281 673.367 59.3594 678.086 57.6406C682.836 55.9219 688.195 55.0625 694.164 55.0625C703.508 55.0625 710.539 56.9844 715.258 60.8281C720.008 64.6719 722.273 69.9062 722.055 76.5312ZM690.836 26.0937L698.336 37.5313L709.633 26.0937H726.648L726.555 26.75L704.195 47.375H689.336L673.68 26.75L673.773 26.0937H690.836ZM727.785 128L739.785 56H759.754L747.754 128H727.785ZM744.051 46.625L757.598 25.2969H776.066L758.207 46.625H744.051ZM814.645 129.359C810.082 129.359 806.129 128.563 802.785 126.969C799.473 125.344 797.035 122.937 795.473 119.75C793.91 116.562 793.52 112.609 794.301 107.891C794.988 103.891 796.285 100.547 798.191 97.8594C800.129 95.1406 802.488 92.9531 805.27 91.2969C808.051 89.6406 811.129 88.375 814.504 87.5C817.91 86.625 821.426 86.0312 825.051 85.7188C829.238 85.2812 832.645 84.8594 835.27 84.4531C837.926 84.0469 839.91 83.4687 841.223 82.7187C842.535 81.9375 843.332 80.7812 843.613 79.25V78.9687C844.082 76.0312 843.535 73.75 841.973 72.125C840.441 70.4687 837.988 69.6406 834.613 69.6406C831.051 69.6406 828.02 70.4219 825.52 71.9844C823.051 73.5469 821.285 75.5312 820.223 77.9375L802.035 76.4375C803.66 72.0625 806.113 68.2812 809.395 65.0938C812.707 61.875 816.691 59.4062 821.348 57.6875C826.004 55.9375 831.223 55.0625 837.004 55.0625C841.004 55.0625 844.738 55.5312 848.207 56.4687C851.707 57.4062 854.723 58.8594 857.254 60.8281C859.816 62.7969 861.66 65.3281 862.785 68.4219C863.941 71.4844 864.176 75.1562 863.488 79.4375L855.379 128H836.441L838.129 118.016H837.566C836.035 120.266 834.16 122.25 831.941 123.969C829.723 125.656 827.176 126.984 824.301 127.953C821.426 128.891 818.207 129.359 814.645 129.359ZM822.66 115.578C825.566 115.578 828.238 115 830.676 113.844C833.145 112.656 835.176 111.062 836.77 109.063C838.395 107.062 839.426 104.797 839.863 102.266L841.082 94.625C840.457 95.0312 839.551 95.3906 838.363 95.7031C837.207 96.0156 835.941 96.3125 834.566 96.5937C833.223 96.8437 831.863 97.0781 830.488 97.2969C829.113 97.4844 827.879 97.6719 826.785 97.8594C824.379 98.2031 822.223 98.75 820.316 99.5C818.41 100.25 816.863 101.266 815.676 102.547C814.488 103.797 813.754 105.359 813.473 107.234C813.035 109.953 813.676 112.031 815.395 113.469C817.145 114.875 819.566 115.578 822.66 115.578ZM922.152 97.3437L929.043 56H949.012L937.012 128H917.84L919.996 114.922H919.246C917.027 119.141 913.793 122.531 909.543 125.094C905.293 127.656 900.465 128.938 895.059 128.938C890.246 128.938 886.184 127.844 882.871 125.656C879.59 123.469 877.262 120.359 875.887 116.328C874.512 112.297 874.277 107.469 875.184 101.844L882.871 56H902.84L895.809 98.2812C895.152 102.531 895.746 105.891 897.59 108.359C899.434 110.828 902.246 112.062 906.027 112.062C908.434 112.062 910.762 111.516 913.012 110.422C915.293 109.297 917.262 107.641 918.918 105.453C920.574 103.266 921.652 100.562 922.152 97.3437ZM1003.28 56L1000.8 71H957.391L959.922 56H1003.28ZM972.578 38.75H992.547L981.391 105.875C981.078 107.719 981.125 109.156 981.531 110.187C981.938 111.187 982.609 111.891 983.547 112.297C984.516 112.703 985.672 112.906 987.016 112.906C987.953 112.906 988.906 112.828 989.875 112.672C990.844 112.484 991.578 112.344 992.078 112.25L992.828 127.109C991.703 127.453 990.188 127.828 988.281 128.234C986.406 128.641 984.188 128.891 981.625 128.984C976.75 129.172 972.625 128.531 969.25 127.062C965.875 125.562 963.453 123.266 961.984 120.172C960.516 117.078 960.203 113.187 961.047 108.5L972.578 38.75ZM1024.63 129.359C1020.07 129.359 1016.12 128.563 1012.77 126.969C1009.46 125.344 1007.02 122.937 1005.46 119.75C1003.9 116.562 1003.51 112.609 1004.29 107.891C1004.98 103.891 1006.27 100.547 1008.18 97.8594C1010.12 95.1406 1012.48 92.9531 1015.26 91.2969C1018.04 89.6406 1021.12 88.375 1024.49 87.5C1027.9 86.625 1031.41 86.0312 1035.04 85.7188C1039.23 85.2812 1042.63 84.8594 1045.26 84.4531C1047.91 84.0469 1049.9 83.4687 1051.21 82.7187C1052.52 81.9375 1053.32 80.7812 1053.6 79.25V78.9687C1054.07 76.0312 1053.52 73.75 1051.96 72.125C1050.43 70.4687 1047.98 69.6406 1044.6 69.6406C1041.04 69.6406 1038.01 70.4219 1035.51 71.9844C1033.04 73.5469 1031.27 75.5312 1030.21 77.9375L1012.02 76.4375C1013.65 72.0625 1016.1 68.2812 1019.38 65.0938C1022.7 61.875 1026.68 59.4062 1031.34 57.6875C1035.99 55.9375 1041.21 55.0625 1046.99 55.0625C1050.99 55.0625 1054.73 55.5312 1058.2 56.4687C1061.7 57.4062 1064.71 58.8594 1067.24 60.8281C1069.8 62.7969 1071.65 65.3281 1072.77 68.4219C1073.93 71.4844 1074.16 75.1562 1073.48 79.4375L1065.37 128H1046.43L1048.12 118.016H1047.55C1046.02 120.266 1044.15 122.25 1041.93 123.969C1039.71 125.656 1037.16 126.984 1034.29 127.953C1031.41 128.891 1028.2 129.359 1024.63 129.359ZM1032.65 115.578C1035.55 115.578 1038.23 115 1040.66 113.844C1043.13 112.656 1045.16 111.062 1046.76 109.063C1048.38 107.062 1049.41 104.797 1049.85 102.266L1051.07 94.625C1050.45 95.0312 1049.54 95.3906 1048.35 95.7031C1047.2 96.0156 1045.93 96.3125 1044.55 96.5937C1043.21 96.8437 1041.85 97.0781 1040.48 97.2969C1039.1 97.4844 1037.87 97.6719 1036.77 97.8594C1034.37 98.2031 1032.21 98.75 1030.3 99.5C1028.4 100.25 1026.85 101.266 1025.66 102.547C1024.48 103.797 1023.74 105.359 1023.46 107.234C1023.02 109.953 1023.66 112.031 1025.38 113.469C1027.13 114.875 1029.55 115.578 1032.65 115.578Z" fill="white"/>
</svg>
